<svg width="39" height="39" viewBox="0 0 39 39" fill="none" xmlns="http://www.w3.org/2000/svg">
<path d="M13.3083 11.0423L17.4688 6.88184V28.8907C17.4688 29.4253 17.6811 29.938 18.0591 30.316C18.4372 30.694 18.9498 30.9063 19.4844 30.9063C20.019 30.9063 20.5317 30.694 20.9097 30.316C21.2877 29.938 21.5 29.4253 21.5 28.8907V6.88184L25.6605 11.0423C25.8475 11.2303 26.0698 11.3796 26.3145 11.4816C26.5593 11.5835 26.8218 11.6362 27.0869 11.6366C27.3521 11.6369 27.6147 11.585 27.8598 11.4837C28.1048 11.3824 28.3274 11.2337 28.5149 11.0462C28.7024 10.8587 28.8511 10.6361 28.9524 10.391C29.0537 10.146 29.1057 9.88338 29.1053 9.61822C29.1049 9.35306 29.0523 9.09058 28.9503 8.84582C28.8483 8.60105 28.6991 8.37881 28.5111 8.19183L20.9097 0.5904C20.7225 0.403221 20.5003 0.254741 20.2558 0.15344C20.0112 0.0521391 19.7491 0 19.4844 0C19.2197 0 18.9576 0.0521391 18.713 0.15344C18.4685 0.254741 18.2463 0.403221 18.0591 0.5904L10.4578 8.19183C10.2698 8.37881 10.1205 8.60105 10.0185 8.84582C9.91656 9.09058 9.86389 9.35306 9.86353 9.61822C9.86317 9.88338 9.91513 10.146 10.0164 10.391C10.1177 10.6361 10.2664 10.8587 10.4539 11.0462C10.6414 11.2337 10.864 11.3824 11.1091 11.4837C11.3541 11.585 11.6167 11.6369 11.8819 11.6366C12.147 11.6362 12.4095 11.5835 12.6543 11.4816C12.8991 11.3796 13.1213 11.2303 13.3083 11.0423Z" fill="#F3F3F3"/>
<path d="M36.9531 17.4688C36.4185 17.4688 35.9059 17.6811 35.5279 18.0591C35.1499 18.4371 34.9375 18.9498 34.9375 19.4844V34.9375H4.03125V19.4844C4.03125 18.9498 3.81889 18.4371 3.44089 18.0591C3.06288 17.6811 2.5502 17.4688 2.01562 17.4688C1.48105 17.4688 0.968366 17.6811 0.590363 18.0591C0.21236 18.4371 0 18.9498 0 19.4844V35.6094C0 36.5003 0.353933 37.3548 0.983938 37.9848C1.61394 38.6148 2.46841 38.9687 3.35938 38.9687H35.6094C36.5003 38.9687 37.3548 38.6148 37.9848 37.9848C38.6148 37.3548 38.9688 36.5003 38.9688 35.6094V19.4844C38.9688 18.9498 38.7564 18.4371 38.3784 18.0591C38.0004 17.6811 37.4877 17.4688 36.9531 17.4688Z" fill="#F3F3F3"/>
</svg>
